<svg width="178" height="46" viewBox="0 0 178 46" fill="none" xmlns="http://www.w3.org/2000/svg">
<path d="M10.316 12.2577H4.366L3.193 15.0117H0.915L6.27 3.11172H8.446L13.818 15.0117H11.506L10.316 12.2577ZM9.585 10.5237L7.341 5.32172L5.114 10.5237H9.585ZM24.5624 15.0117L22.1314 11.5267C22.0294 11.5381 21.8764 11.5437 21.6724 11.5437H18.9864V15.0117H16.7764V3.11172H21.6724C22.7037 3.11172 23.5991 3.28172 24.3584 3.62172C25.1291 3.96172 25.7184 4.44905 26.1264 5.08372C26.5344 5.71839 26.7384 6.47205 26.7384 7.34472C26.7384 8.24005 26.5174 9.01072 26.0754 9.65672C25.6447 10.3027 25.0214 10.7844 24.2054 11.1017L26.9424 15.0117H24.5624ZM24.5114 7.34472C24.5114 6.58539 24.2621 6.00172 23.7634 5.59372C23.2647 5.18572 22.5337 4.98172 21.5704 4.98172H18.9864V9.72472H21.5704C22.5337 9.72472 23.2647 9.52072 23.7634 9.11272C24.2621 8.69339 24.5114 8.10405 24.5114 7.34472ZM32.904 4.98172H28.96V3.11172H39.058V4.98172H35.114V15.0117H32.904V4.98172ZM42.1615 3.11172H44.3715V15.0117H42.1615V3.11172ZM52.7242 15.1817C51.8062 15.1817 50.9166 15.0514 50.0552 14.7907C49.2052 14.5301 48.5309 14.1844 48.0322 13.7537L48.7972 12.0367C49.2846 12.4221 49.8796 12.7394 50.5822 12.9887C51.2962 13.2267 52.0102 13.3457 52.7242 13.3457C53.6082 13.3457 54.2656 13.2041 54.6962 12.9207C55.1382 12.6374 55.3592 12.2634 55.3592 11.7987C55.3592 11.4587 55.2346 11.1811 54.9852 10.9657C54.7472 10.7391 54.4412 10.5634 54.0672 10.4387C53.6932 10.3141 53.1832 10.1724 52.5372 10.0137C51.6306 9.79839 50.8939 9.58305 50.3272 9.36772C49.7719 9.15239 49.2902 8.81805 48.8822 8.36472C48.4856 7.90005 48.2872 7.27672 48.2872 6.49472C48.2872 5.83738 48.4629 5.24239 48.8142 4.70972C49.1769 4.16572 49.7152 3.73505 50.4292 3.41772C51.1546 3.10038 52.0386 2.94172 53.0812 2.94172C53.8066 2.94172 54.5206 3.03238 55.2232 3.21372C55.9259 3.39505 56.5322 3.65572 57.0422 3.99572L56.3452 5.71272C55.8239 5.40672 55.2799 5.17439 54.7132 5.01572C54.1466 4.85705 53.5969 4.77772 53.0642 4.77772C52.1916 4.77772 51.5399 4.92505 51.1092 5.21972C50.6899 5.51439 50.4802 5.90539 50.4802 6.39272C50.4802 6.73272 50.5992 7.01038 50.8372 7.22572C51.0866 7.44105 51.3982 7.61105 51.7722 7.73572C52.1462 7.86038 52.6562 8.00205 53.3022 8.16072C54.1862 8.36472 54.9116 8.58005 55.4782 8.80672C56.0449 9.02205 56.5266 9.35639 56.9232 9.80972C57.3312 10.2631 57.5352 10.8751 57.5352 11.6457C57.5352 12.3031 57.3539 12.8981 56.9912 13.4307C56.6399 13.9634 56.1016 14.3884 55.3762 14.7057C54.6509 15.0231 53.7669 15.1817 52.7242 15.1817ZM63.4196 4.98172H59.4756V3.11172H69.5736V4.98172H65.6296V15.0117H63.4196V4.98172ZM72.6772 3.11172H74.8872V15.0117H72.6772V3.11172ZM85.0589 15.1817C83.8576 15.1817 82.7696 14.9211 81.7949 14.3997C80.8316 13.8671 80.0722 13.1361 79.5169 12.2067C78.9729 11.2774 78.7009 10.2291 78.7009 9.06172C78.7009 7.89439 78.9786 6.84605 79.5339 5.91672C80.0892 4.98738 80.8486 4.26205 81.8119 3.74072C82.7866 3.20805 83.8746 2.94172 85.0759 2.94172C86.0506 2.94172 86.9402 3.11172 87.7449 3.45172C88.5496 3.79172 89.2296 4.28472 89.7849 4.93072L88.3569 6.27372C87.4956 5.34439 86.4359 4.87972 85.1779 4.87972C84.3619 4.87972 83.6309 5.06105 82.9849 5.42372C82.3389 5.77505 81.8346 6.26805 81.4719 6.90272C81.1092 7.53738 80.9279 8.25705 80.9279 9.06172C80.9279 9.86639 81.1092 10.5861 81.4719 11.2207C81.8346 11.8554 82.3389 12.3541 82.9849 12.7167C83.6309 13.0681 84.3619 13.2437 85.1779 13.2437C86.4359 13.2437 87.4956 12.7734 88.3569 11.8327L89.7849 13.1927C89.2296 13.8387 88.5439 14.3317 87.7279 14.6717C86.9232 15.0117 86.0336 15.1817 85.0589 15.1817Z" fill="#2F2F2F"/>
<path d="M6.348 28.449C7.61733 28.449 8.616 28.7524 9.344 29.359C10.072 29.9657 10.436 30.801 10.436 31.865C10.436 32.929 10.072 33.7644 9.344 34.371C8.616 34.9777 7.61733 35.281 6.348 35.281H3.926V38.249H2.526V28.449H6.348ZM6.306 34.063C7.19267 34.063 7.86933 33.8764 8.336 33.503C8.80267 33.1204 9.036 32.5744 9.036 31.865C9.036 31.1557 8.80267 30.6144 8.336 30.241C7.86933 29.8584 7.19267 29.667 6.306 29.667H3.926V34.063H6.306ZM18.6281 34.581C18.6281 34.6837 18.6187 34.819 18.6001 34.987H12.5801C12.6641 35.6404 12.9487 36.1677 13.4341 36.569C13.9287 36.961 14.5401 37.157 15.2681 37.157C16.1547 37.157 16.8687 36.8584 17.4101 36.261L18.1521 37.129C17.8161 37.521 17.3961 37.8197 16.8921 38.025C16.3974 38.2304 15.8421 38.333 15.2261 38.333C14.4421 38.333 13.7467 38.1744 13.1401 37.857C12.5334 37.5304 12.0621 37.0777 11.7261 36.499C11.3994 35.9204 11.2361 35.267 11.2361 34.539C11.2361 33.8204 11.3947 33.1717 11.7121 32.593C12.0387 32.0144 12.4821 31.5664 13.0421 31.249C13.6114 30.9224 14.2507 30.759 14.9601 30.759C15.6694 30.759 16.2994 30.9224 16.8501 31.249C17.4101 31.5664 17.8441 32.0144 18.1521 32.593C18.4694 33.1717 18.6281 33.8344 18.6281 34.581ZM14.9601 31.893C14.3161 31.893 13.7747 32.089 13.3361 32.481C12.9067 32.873 12.6547 33.3864 12.5801 34.021H17.3401C17.2654 33.3957 17.0087 32.887 16.5701 32.495C16.1407 32.0937 15.6041 31.893 14.9601 31.893ZM29.0571 30.829V38.249H27.8391V32.831L25.0671 37.409H24.4791L21.7351 32.817V38.249H20.5031V30.829H21.8891L24.8011 35.841L27.7971 30.829H29.0571ZM34.641 38.333C33.9037 38.333 33.241 38.1697 32.653 37.843C32.065 37.5164 31.603 37.0684 31.267 36.499C30.9403 35.9204 30.777 35.267 30.777 34.539C30.777 33.811 30.9403 33.1624 31.267 32.593C31.603 32.0144 32.065 31.5664 32.653 31.249C33.241 30.9224 33.9037 30.759 34.641 30.759C35.3784 30.759 36.0364 30.9224 36.615 31.249C37.203 31.5664 37.6604 32.0144 37.987 32.593C38.323 33.1624 38.491 33.811 38.491 34.539C38.491 35.267 38.323 35.9204 37.987 36.499C37.6604 37.0684 37.203 37.5164 36.615 37.843C36.0364 38.1697 35.3784 38.333 34.641 38.333ZM34.641 37.157C35.117 37.157 35.5417 37.0497 35.915 36.835C36.2977 36.611 36.5964 36.303 36.811 35.911C37.0257 35.5097 37.133 35.0524 37.133 34.539C37.133 34.0257 37.0257 33.573 36.811 33.181C36.5964 32.7797 36.2977 32.4717 35.915 32.257C35.5417 32.0424 35.117 31.935 34.641 31.935C34.165 31.935 33.7357 32.0424 33.353 32.257C32.9797 32.4717 32.681 32.7797 32.457 33.181C32.2423 33.573 32.135 34.0257 32.135 34.539C32.135 35.0524 32.2423 35.5097 32.457 35.911C32.681 36.303 32.9797 36.611 33.353 36.835C33.7357 37.0497 34.165 37.157 34.641 37.157ZM40.2218 30.829H41.5658V33.979H45.7938V30.829H47.1378V38.249H45.7938V35.141H41.5658V38.249H40.2218V30.829ZM55.0711 32.005H52.3551V38.249H51.0111V32.005H48.2951V30.829H55.0711V32.005ZM64.8391 34.399C65.8005 34.6417 66.2811 35.2437 66.2811 36.205C66.2811 36.8584 66.0338 37.3624 65.5391 37.717C65.0538 38.0717 64.3258 38.249 63.3551 38.249H59.7851V30.829H63.2291C64.1065 30.829 64.7925 30.997 65.2871 31.333C65.7818 31.6597 66.0291 32.1264 66.0291 32.733C66.0291 33.125 65.9218 33.4657 65.7071 33.755C65.5018 34.035 65.2125 34.2497 64.8391 34.399ZM61.1011 34.021H63.1171C63.6305 34.021 64.0178 33.9277 64.2791 33.741C64.5498 33.5544 64.6851 33.2837 64.6851 32.929C64.6851 32.2197 64.1625 31.865 63.1171 31.865H61.1011V34.021ZM63.2571 37.213C63.8171 37.213 64.2371 37.1244 64.5171 36.947C64.7971 36.7697 64.9371 36.4944 64.9371 36.121C64.9371 35.7384 64.8065 35.4537 64.5451 35.267C64.2931 35.0804 63.8918 34.987 63.3411 34.987H61.1011V37.213H63.2571ZM70.8207 30.759C71.8474 30.759 72.6314 31.011 73.1727 31.515C73.7234 32.019 73.9987 32.7704 73.9987 33.769V38.249H72.7247V37.269C72.5007 37.6144 72.1787 37.8804 71.7587 38.067C71.3481 38.2444 70.8581 38.333 70.2887 38.333C69.4581 38.333 68.7907 38.1324 68.2867 37.731C67.7921 37.3297 67.5447 36.8024 67.5447 36.149C67.5447 35.4957 67.7827 34.973 68.2587 34.581C68.7347 34.1797 69.4907 33.979 70.5267 33.979H72.6547V33.713C72.6547 33.1344 72.4867 32.691 72.1507 32.383C71.8147 32.075 71.3201 31.921 70.6667 31.921C70.2281 31.921 69.7987 31.9957 69.3787 32.145C68.9587 32.285 68.6041 32.4764 68.3147 32.719L67.7547 31.711C68.1374 31.403 68.5947 31.1697 69.1267 31.011C69.6587 30.843 70.2234 30.759 70.8207 30.759ZM70.5127 37.297C71.0261 37.297 71.4694 37.185 71.8427 36.961C72.2161 36.7277 72.4867 36.401 72.6547 35.981V34.945H70.5827C69.4441 34.945 68.8747 35.3277 68.8747 36.093C68.8747 36.4664 69.0194 36.7604 69.3087 36.975C69.5981 37.1897 69.9994 37.297 70.5127 37.297ZM76.2089 30.829H77.5529V33.979H81.7809V30.829H83.1249V38.249H81.7809V35.141H77.5529V38.249H76.2089V30.829ZM85.5282 30.829H86.8722V33.979H91.1002V30.829H92.4442V38.249H91.1002V35.141H86.8722V38.249H85.5282V30.829ZM98.1935 33.349C99.1268 33.3584 99.8408 33.573 100.335 33.993C100.83 34.413 101.077 35.0057 101.077 35.771C101.077 36.5737 100.807 37.1944 100.265 37.633C99.7335 38.0624 98.9681 38.2724 97.9695 38.263L94.8475 38.249V30.829H96.1915V33.335L98.1935 33.349ZM102.183 30.829H103.527V38.249H102.183V30.829ZM97.8715 37.241C98.4781 37.2504 98.9355 37.129 99.2435 36.877C99.5608 36.625 99.7195 36.2517 99.7195 35.757C99.7195 35.2717 99.5655 34.917 99.2575 34.693C98.9495 34.469 98.4875 34.3524 97.8715 34.343L96.1915 34.315V37.227L97.8715 37.241ZM110.564 38.249L108.422 35.407L106.252 38.249H104.754L107.68 34.455L104.894 30.829H106.392L108.436 33.503L110.466 30.829H111.936L109.136 34.455L112.09 38.249H110.564ZM119.728 35.113H118.188V38.249H116.844V30.829H118.188V33.965H119.756L122.164 30.829H123.606L120.792 34.399L123.802 38.249H122.22L119.728 35.113ZM127.934 38.333C127.196 38.333 126.534 38.1697 125.946 37.843C125.358 37.5164 124.896 37.0684 124.56 36.499C124.233 35.9204 124.07 35.267 124.07 34.539C124.07 33.811 124.233 33.1624 124.56 32.593C124.896 32.0144 125.358 31.5664 125.946 31.249C126.534 30.9224 127.196 30.759 127.934 30.759C128.671 30.759 129.329 30.9224 129.908 31.249C130.496 31.5664 130.953 32.0144 131.28 32.593C131.616 33.1624 131.784 33.811 131.784 34.539C131.784 35.267 131.616 35.9204 131.28 36.499C130.953 37.0684 130.496 37.5164 129.908 37.843C129.329 38.1697 128.671 38.333 127.934 38.333ZM127.934 37.157C128.41 37.157 128.834 37.0497 129.208 36.835C129.59 36.611 129.889 36.303 130.104 35.911C130.318 35.5097 130.426 35.0524 130.426 34.539C130.426 34.0257 130.318 33.573 130.104 33.181C129.889 32.7797 129.59 32.4717 129.208 32.257C128.834 32.0424 128.41 31.935 127.934 31.935C127.458 31.935 127.028 32.0424 126.646 32.257C126.272 32.4717 125.974 32.7797 125.75 33.181C125.535 33.573 125.428 34.0257 125.428 34.539C125.428 35.0524 125.535 35.5097 125.75 35.911C125.974 36.303 126.272 36.611 126.646 36.835C127.028 37.0497 127.458 37.157 127.934 37.157ZM142.068 30.829V38.249H140.85V32.831L138.078 37.409H137.49L134.746 32.817V38.249H133.514V30.829H134.9L137.812 35.841L140.808 30.829H142.068ZM144.474 30.829H145.818V33.979H150.046V30.829H151.39V38.249H150.046V35.141H145.818V38.249H144.474V30.829ZM156.439 30.759C157.466 30.759 158.25 31.011 158.791 31.515C159.342 32.019 159.617 32.7704 159.617 33.769V38.249H158.343V37.269C158.119 37.6144 157.797 37.8804 157.377 38.067C156.967 38.2444 156.477 38.333 155.907 38.333C155.077 38.333 154.409 38.1324 153.905 37.731C153.411 37.3297 153.163 36.8024 153.163 36.149C153.163 35.4957 153.401 34.973 153.877 34.581C154.353 34.1797 155.109 33.979 156.145 33.979H158.273V33.713C158.273 33.1344 158.105 32.691 157.769 32.383C157.433 32.075 156.939 31.921 156.285 31.921C155.847 31.921 155.417 31.9957 154.997 32.145C154.577 32.285 154.223 32.4764 153.933 32.719L153.373 31.711C153.756 31.403 154.213 31.1697 154.745 31.011C155.277 30.843 155.842 30.759 156.439 30.759ZM156.131 37.297C156.645 37.297 157.088 37.185 157.461 36.961C157.835 36.7277 158.105 36.401 158.273 35.981V34.945H156.201C155.063 34.945 154.493 35.3277 154.493 36.093C154.493 36.4664 154.638 36.7604 154.927 36.975C155.217 37.1897 155.618 37.297 156.131 37.297ZM167.358 32.005H164.642V38.249H163.298V32.005H160.582V30.829H167.358V32.005Z" fill="#2F2F2F"/>
</svg>
