<svg width="225" height="36" viewBox="0 0 225 36" fill="none" xmlns="http://www.w3.org/2000/svg">
<path d="M57.316 12.246H51.366L50.193 15H47.915L53.27 3.1H55.446L60.818 15H58.506L57.316 12.246ZM56.585 10.512L54.341 5.31L52.114 10.512H56.585ZM71.5624 15L69.1314 11.515C69.0294 11.5263 68.8764 11.532 68.6724 11.532H65.9864V15H63.7764V3.1H68.6724C69.7037 3.1 70.5991 3.27 71.3584 3.61C72.1291 3.95 72.7184 4.43733 73.1264 5.072C73.5344 5.70667 73.7384 6.46033 73.7384 7.333C73.7384 8.22833 73.5174 8.999 73.0754 9.645C72.6447 10.291 72.0214 10.7727 71.2054 11.09L73.9424 15H71.5624ZM71.5114 7.333C71.5114 6.57367 71.2621 5.99 70.7634 5.582C70.2647 5.174 69.5337 4.97 68.5704 4.97H65.9864V9.713H68.5704C69.5337 9.713 70.2647 9.509 70.7634 9.101C71.2621 8.68167 71.5114 8.09233 71.5114 7.333ZM79.904 4.97H75.96V3.1H86.058V4.97H82.114V15H79.904V4.97ZM89.1615 3.1H91.3715V15H89.1615V3.1ZM99.7242 15.17C98.8062 15.17 97.9166 15.0397 97.0552 14.779C96.2052 14.5183 95.5309 14.1727 95.0322 13.742L95.7972 12.025C96.2846 12.4103 96.8796 12.7277 97.5822 12.977C98.2962 13.215 99.0102 13.334 99.7242 13.334C100.608 13.334 101.266 13.1923 101.696 12.909C102.138 12.6257 102.359 12.2517 102.359 11.787C102.359 11.447 102.235 11.1693 101.985 10.954C101.747 10.7273 101.441 10.5517 101.067 10.427C100.693 10.3023 100.183 10.1607 99.5372 10.002C98.6306 9.78667 97.8939 9.57133 97.3272 9.356C96.7719 9.14067 96.2902 8.80633 95.8822 8.353C95.4856 7.88833 95.2872 7.265 95.2872 6.483C95.2872 5.82567 95.4629 5.23067 95.8142 4.698C96.1769 4.154 96.7152 3.72333 97.4292 3.406C98.1546 3.08867 99.0386 2.93 100.081 2.93C100.807 2.93 101.521 3.02067 102.223 3.202C102.926 3.38333 103.532 3.644 104.042 3.984L103.345 5.701C102.824 5.395 102.28 5.16267 101.713 5.004C101.147 4.84533 100.597 4.766 100.064 4.766C99.1916 4.766 98.5399 4.91333 98.1092 5.208C97.6899 5.50267 97.4802 5.89367 97.4802 6.381C97.4802 6.721 97.5992 6.99867 97.8372 7.214C98.0866 7.42933 98.3982 7.59933 98.7722 7.724C99.1462 7.84867 99.6562 7.99033 100.302 8.149C101.186 8.353 101.912 8.56833 102.478 8.795C103.045 9.01033 103.527 9.34467 103.923 9.798C104.331 10.2513 104.535 10.8633 104.535 11.634C104.535 12.2913 104.354 12.8863 103.991 13.419C103.64 13.9517 103.102 14.3767 102.376 14.694C101.651 15.0113 100.767 15.17 99.7242 15.17ZM110.42 4.97H106.476V3.1H116.574V4.97H112.63V15H110.42V4.97ZM119.677 3.1H121.887V15H119.677V3.1ZM132.059 15.17C130.858 15.17 129.77 14.9093 128.795 14.388C127.832 13.8553 127.072 13.1243 126.517 12.195C125.973 11.2657 125.701 10.2173 125.701 9.05C125.701 7.88267 125.979 6.83433 126.534 5.905C127.089 4.97567 127.849 4.25033 128.812 3.729C129.787 3.19633 130.875 2.93 132.076 2.93C133.051 2.93 133.94 3.1 134.745 3.44C135.55 3.78 136.23 4.273 136.785 4.919L135.357 6.262C134.496 5.33267 133.436 4.868 132.178 4.868C131.362 4.868 130.631 5.04933 129.985 5.412C129.339 5.76333 128.835 6.25633 128.472 6.891C128.109 7.52567 127.928 8.24533 127.928 9.05C127.928 9.85467 128.109 10.5743 128.472 11.209C128.835 11.8437 129.339 12.3423 129.985 12.705C130.631 13.0563 131.362 13.232 132.178 13.232C133.436 13.232 134.496 12.7617 135.357 11.821L136.785 13.181C136.23 13.827 135.544 14.32 134.728 14.66C133.923 15 133.034 15.17 132.059 15.17Z" fill="#2F2F2F"/>
<path d="M53.908 33.112C52.928 33.112 52.0413 32.8973 51.248 32.468C50.464 32.0293 49.848 31.432 49.4 30.676C48.952 29.9107 48.728 29.052 48.728 28.1C48.728 27.148 48.952 26.294 49.4 25.538C49.848 24.7727 50.4687 24.1753 51.262 23.746C52.0553 23.3073 52.942 23.088 53.922 23.088C54.6873 23.088 55.3873 23.2187 56.022 23.48C56.6567 23.732 57.198 24.11 57.646 24.614L56.736 25.496C55.9987 24.7213 55.0793 24.334 53.978 24.334C53.25 24.334 52.592 24.4973 52.004 24.824C51.416 25.1507 50.954 25.6033 50.618 26.182C50.2913 26.7513 50.128 27.3907 50.128 28.1C50.128 28.8093 50.2913 29.4533 50.618 30.032C50.954 30.6013 51.416 31.0493 52.004 31.376C52.592 31.7027 53.25 31.866 53.978 31.866C55.07 31.866 55.9893 31.474 56.736 30.69L57.646 31.572C57.198 32.076 56.652 32.4587 56.008 32.72C55.3733 32.9813 54.6733 33.112 53.908 33.112ZM64.4658 26.756H61.7497V33H60.4058V26.756H57.6897V25.58H64.4658V26.756ZM69.564 25.51C70.2827 25.51 70.9267 25.6687 71.496 25.986C72.0654 26.3033 72.5087 26.7467 72.826 27.316C73.1527 27.8853 73.316 28.5433 73.316 29.29C73.316 30.0367 73.1527 30.6993 72.826 31.278C72.5087 31.8473 72.0654 32.2907 71.496 32.608C70.9267 32.9253 70.2827 33.084 69.564 33.084C69.032 33.084 68.542 32.9813 68.094 32.776C67.6554 32.5707 67.282 32.272 66.974 31.88V35.716H65.63V25.58H66.918V26.756C67.2167 26.3453 67.5947 26.0373 68.052 25.832C68.5094 25.6173 69.0134 25.51 69.564 25.51ZM69.452 31.908C69.928 31.908 70.3527 31.8007 70.726 31.586C71.1087 31.362 71.4074 31.054 71.622 30.662C71.846 30.2607 71.958 29.8033 71.958 29.29C71.958 28.7767 71.846 28.324 71.622 27.932C71.4074 27.5307 71.1087 27.2227 70.726 27.008C70.3527 26.7933 69.928 26.686 69.452 26.686C68.9854 26.686 68.5607 26.798 68.178 27.022C67.8047 27.2367 67.506 27.54 67.282 27.932C67.0674 28.324 66.96 28.7767 66.96 29.29C66.96 29.8033 67.0674 30.2607 67.282 30.662C67.4967 31.054 67.7954 31.362 68.178 31.586C68.5607 31.8007 68.9854 31.908 69.452 31.908ZM78.2367 33.084C77.4994 33.084 76.8367 32.9207 76.2487 32.594C75.6607 32.2673 75.1987 31.8193 74.8627 31.25C74.5361 30.6713 74.3727 30.018 74.3727 29.29C74.3727 28.562 74.5361 27.9133 74.8627 27.344C75.1987 26.7653 75.6607 26.3173 76.2487 26C76.8367 25.6733 77.4994 25.51 78.2367 25.51C78.9741 25.51 79.6321 25.6733 80.2107 26C80.7987 26.3173 81.2561 26.7653 81.5827 27.344C81.9187 27.9133 82.0867 28.562 82.0867 29.29C82.0867 30.018 81.9187 30.6713 81.5827 31.25C81.2561 31.8193 80.7987 32.2673 80.2107 32.594C79.6321 32.9207 78.9741 33.084 78.2367 33.084ZM78.2367 31.908C78.7127 31.908 79.1374 31.8007 79.5107 31.586C79.8934 31.362 80.1921 31.054 80.4067 30.662C80.6214 30.2607 80.7287 29.8033 80.7287 29.29C80.7287 28.7767 80.6214 28.324 80.4067 27.932C80.1921 27.5307 79.8934 27.2227 79.5107 27.008C79.1374 26.7933 78.7127 26.686 78.2367 26.686C77.7607 26.686 77.3314 26.7933 76.9487 27.008C76.5754 27.2227 76.2767 27.5307 76.0527 27.932C75.8381 28.324 75.7307 28.7767 75.7307 29.29C75.7307 29.8033 75.8381 30.2607 76.0527 30.662C76.2767 31.054 76.5754 31.362 76.9487 31.586C77.3314 31.8007 77.7607 31.908 78.2367 31.908ZM83.8175 25.58H85.1615V30.984L89.7115 25.58H90.9295V33H89.5855V27.596L85.0495 33H83.8175V25.58ZM98.8582 26.756H96.1422V33H94.7982V26.756H92.0822V25.58H98.8582V26.756ZM106.4 29.332C106.4 29.4347 106.391 29.57 106.372 29.738H100.352C100.436 30.3913 100.721 30.9187 101.206 31.32C101.701 31.712 102.312 31.908 103.04 31.908C103.927 31.908 104.641 31.6093 105.182 31.012L105.924 31.88C105.588 32.272 105.168 32.5707 104.664 32.776C104.17 32.9813 103.614 33.084 102.998 33.084C102.214 33.084 101.519 32.9253 100.912 32.608C100.306 32.2813 99.8343 31.8287 99.4983 31.25C99.1717 30.6713 99.0083 30.018 99.0083 29.29C99.0083 28.5713 99.167 27.9227 99.4843 27.344C99.811 26.7653 100.254 26.3173 100.814 26C101.384 25.6733 102.023 25.51 102.732 25.51C103.442 25.51 104.072 25.6733 104.622 26C105.182 26.3173 105.616 26.7653 105.924 27.344C106.242 27.9227 106.4 28.5853 106.4 29.332ZM102.732 26.644C102.088 26.644 101.547 26.84 101.108 27.232C100.679 27.624 100.427 28.1373 100.352 28.772H105.112C105.038 28.1467 104.781 27.638 104.342 27.246C103.913 26.8447 103.376 26.644 102.732 26.644ZM114.522 25.58V33H113.178V26.756H109.986L109.902 28.408C109.856 29.4067 109.767 30.242 109.636 30.914C109.506 31.5767 109.291 32.1087 108.992 32.51C108.694 32.9113 108.278 33.112 107.746 33.112C107.504 33.112 107.228 33.07 106.92 32.986L107.004 31.852C107.126 31.88 107.238 31.894 107.34 31.894C107.714 31.894 107.994 31.7307 108.18 31.404C108.367 31.0773 108.488 30.69 108.544 30.242C108.6 29.794 108.652 29.1547 108.698 28.324L108.824 25.58H114.522ZM120.341 28.1C121.284 28.1093 122.002 28.324 122.497 28.744C122.992 29.164 123.239 29.7567 123.239 30.522C123.239 31.3247 122.968 31.9453 122.427 32.384C121.895 32.8133 121.13 33.0233 120.131 33.014L116.911 33V25.58H118.255V28.086L120.341 28.1ZM120.019 31.992C120.626 32.0013 121.083 31.88 121.391 31.628C121.708 31.376 121.867 31.0027 121.867 30.508C121.867 30.0227 121.713 29.668 121.405 29.444C121.106 29.22 120.644 29.1033 120.019 29.094L118.255 29.066V31.978L120.019 31.992ZM124.754 25.58H126.098V28.73H130.326V25.58H131.67V33H130.326V29.892H126.098V33H124.754V25.58ZM136.719 25.51C137.746 25.51 138.53 25.762 139.071 26.266C139.622 26.77 139.897 27.5213 139.897 28.52V33H138.623V32.02C138.399 32.3653 138.077 32.6313 137.657 32.818C137.246 32.9953 136.756 33.084 136.187 33.084C135.356 33.084 134.689 32.8833 134.185 32.482C133.69 32.0807 133.443 31.5533 133.443 30.9C133.443 30.2467 133.681 29.724 134.157 29.332C134.633 28.9307 135.389 28.73 136.425 28.73H138.553V28.464C138.553 27.8853 138.385 27.442 138.049 27.134C137.713 26.826 137.218 26.672 136.565 26.672C136.126 26.672 135.697 26.7467 135.277 26.896C134.857 27.036 134.502 27.2273 134.213 27.47L133.653 26.462C134.036 26.154 134.493 25.9207 135.025 25.762C135.557 25.594 136.122 25.51 136.719 25.51ZM136.411 32.048C136.924 32.048 137.368 31.936 137.741 31.712C138.114 31.4787 138.385 31.152 138.553 30.732V29.696H136.481C135.342 29.696 134.773 30.0787 134.773 30.844C134.773 31.2173 134.918 31.5113 135.207 31.726C135.496 31.9407 135.898 32.048 136.411 32.048ZM148.057 25.58V33H146.853V30.648H144.697H144.543L142.919 33H141.477L143.283 30.466C142.723 30.298 142.294 30.0227 141.995 29.64C141.697 29.248 141.547 28.7627 141.547 28.184C141.547 27.3347 141.837 26.6907 142.415 26.252C142.994 25.804 143.792 25.58 144.809 25.58H148.057ZM142.919 28.226C142.919 28.7207 143.073 29.0893 143.381 29.332C143.699 29.5653 144.17 29.682 144.795 29.682H146.853V26.756H144.851C143.563 26.756 142.919 27.246 142.919 28.226ZM156.903 29.864H155.363V33H154.019V25.58H155.363V28.716H156.931L159.339 25.58H160.781L157.967 29.15L160.977 33H159.395L156.903 29.864ZM165.108 33.084C164.371 33.084 163.708 32.9207 163.12 32.594C162.532 32.2673 162.07 31.8193 161.734 31.25C161.408 30.6713 161.244 30.018 161.244 29.29C161.244 28.562 161.408 27.9133 161.734 27.344C162.07 26.7653 162.532 26.3173 163.12 26C163.708 25.6733 164.371 25.51 165.108 25.51C165.846 25.51 166.504 25.6733 167.082 26C167.67 26.3173 168.128 26.7653 168.454 27.344C168.79 27.9133 168.958 28.562 168.958 29.29C168.958 30.018 168.79 30.6713 168.454 31.25C168.128 31.8193 167.67 32.2673 167.082 32.594C166.504 32.9207 165.846 33.084 165.108 33.084ZM165.108 31.908C165.584 31.908 166.009 31.8007 166.382 31.586C166.765 31.362 167.064 31.054 167.278 30.662C167.493 30.2607 167.6 29.8033 167.6 29.29C167.6 28.7767 167.493 28.324 167.278 27.932C167.064 27.5307 166.765 27.2227 166.382 27.008C166.009 26.7933 165.584 26.686 165.108 26.686C164.632 26.686 164.203 26.7933 163.82 27.008C163.447 27.2227 163.148 27.5307 162.924 27.932C162.71 28.324 162.602 28.7767 162.602 29.29C162.602 29.8033 162.71 30.2607 162.924 30.662C163.148 31.054 163.447 31.362 163.82 31.586C164.203 31.8007 164.632 31.908 165.108 31.908ZM179.243 25.58V33H178.025V27.582L175.253 32.16H174.665L171.921 27.568V33H170.689V25.58H172.075L174.987 30.592L177.983 25.58H179.243ZM188.523 25.58V33H187.179V26.756H182.993V33H181.649V25.58H188.523ZM193.56 25.51C194.586 25.51 195.37 25.762 195.912 26.266C196.462 26.77 196.738 27.5213 196.738 28.52V33H195.464V32.02C195.24 32.3653 194.918 32.6313 194.498 32.818C194.087 32.9953 193.597 33.084 193.028 33.084C192.197 33.084 191.53 32.8833 191.026 32.482C190.531 32.0807 190.284 31.5533 190.284 30.9C190.284 30.2467 190.522 29.724 190.998 29.332C191.474 28.9307 192.23 28.73 193.266 28.73H195.394V28.464C195.394 27.8853 195.226 27.442 194.89 27.134C194.554 26.826 194.059 26.672 193.406 26.672C192.967 26.672 192.538 26.7467 192.118 26.896C191.698 27.036 191.343 27.2273 191.054 27.47L190.494 26.462C190.876 26.154 191.334 25.9207 191.866 25.762C192.398 25.594 192.962 25.51 193.56 25.51ZM193.252 32.048C193.765 32.048 194.208 31.936 194.582 31.712C194.955 31.4787 195.226 31.152 195.394 30.732V29.696H193.322C192.183 29.696 191.614 30.0787 191.614 30.844C191.614 31.2173 191.758 31.5113 192.048 31.726C192.337 31.9407 192.738 32.048 193.252 32.048ZM198.948 25.58H200.292V28.73H204.52V25.58H205.864V33H204.52V29.892H200.292V33H198.948V25.58ZM208.267 25.58H209.611V30.984L214.161 25.58H215.379V33H214.035V27.596L209.499 33H208.267V25.58ZM223.728 25.58V33H222.524V30.648H220.368H220.214L218.59 33H217.148L218.954 30.466C218.394 30.298 217.964 30.0227 217.666 29.64C217.367 29.248 217.218 28.7627 217.218 28.184C217.218 27.3347 217.507 26.6907 218.086 26.252C218.664 25.804 219.462 25.58 220.48 25.58H223.728ZM218.59 28.226C218.59 28.7207 218.744 29.0893 219.052 29.332C219.369 29.5653 219.84 29.682 220.466 29.682H222.524V26.756H220.522C219.234 26.756 218.59 27.246 218.59 28.226Z" fill="#2F2F2F"/>
<path d="M33.1875 14.7656V5.83594C33.1875 2.61795 30.5696 0 27.3516 0C24.1336 0 21.5156 2.61795 21.5156 5.83594H24.3281C24.3281 4.16883 25.6845 2.8125 27.3516 2.8125C29.0187 2.8125 30.375 4.16883 30.375 5.83594V14.7656H24.2104C24.2857 14.5933 24.3281 14.4032 24.3281 14.2031C24.3281 13.4265 23.6985 12.7969 22.9219 12.7969C22.1452 12.7969 21.5156 13.4265 21.5156 14.2031C21.5156 14.4032 21.5581 14.5933 21.6334 14.7656H0V18C0 25.8932 4.88742 30.353 9.01709 32.1877C8.09072 33.1908 7.52344 34.5302 7.52344 36H10.3359C10.3359 34.4492 11.5976 33.1875 13.1484 33.1875H22.8516C24.4024 33.1875 25.6641 34.4492 25.6641 36H28.4766C28.4766 34.5302 27.9093 33.1908 26.9829 32.1877C31.1126 30.353 36 25.8932 36 18V14.7656H33.1875ZM33.1875 18C33.1875 22.9288 30.9129 25.9381 29.0049 27.5947C26.6719 29.6202 24.0787 30.375 22.9922 30.375H13.0078C11.9213 30.375 9.32815 29.6202 6.99511 27.5947C5.08711 25.9381 2.8125 22.9288 2.8125 18V17.5781H33.1875V18Z" fill="#2F2F2F"/>
<path d="M22.9219 10.6875C23.6985 10.6875 24.3281 10.0579 24.3281 9.28125C24.3281 8.5046 23.6985 7.875 22.9219 7.875C22.1452 7.875 21.5156 8.5046 21.5156 9.28125C21.5156 10.0579 22.1452 10.6875 22.9219 10.6875Z" fill="#2F2F2F"/>
</svg>
