<svg width="127" height="29" viewBox="0 0 127 29" fill="none" xmlns="http://www.w3.org/2000/svg">
<path d="M41.576 13.2545H37.376L36.548 15.1985H34.94L38.72 6.79855H40.256L44.048 15.1985H42.416L41.576 13.2545ZM41.06 12.0305L39.476 8.35855L37.904 12.0305H41.06ZM51.6323 15.1985L49.9163 12.7385C49.8443 12.7465 49.7363 12.7505 49.5923 12.7505H47.6963V15.1985H46.1363V6.79855H49.5923C50.3203 6.79855 50.9523 6.91855 51.4883 7.15855C52.0323 7.39855 52.4483 7.74255 52.7363 8.19055C53.0243 8.63855 53.1683 9.17055 53.1683 9.78655C53.1683 10.4185 53.0123 10.9625 52.7003 11.4185C52.3963 11.8745 51.9563 12.2145 51.3803 12.4385L53.3123 15.1985H51.6323ZM51.5963 9.78655C51.5963 9.25055 51.4203 8.83855 51.0683 8.55055C50.7163 8.26255 50.2003 8.11855 49.5203 8.11855H47.6963V11.4665H49.5203C50.2003 11.4665 50.7163 11.3225 51.0683 11.0345C51.4203 10.7385 51.5963 10.3225 51.5963 9.78655ZM57.5204 8.11855H54.7364V6.79855H61.8644V8.11855H59.0804V15.1985H57.5204V8.11855ZM64.0552 6.79855H65.6152V15.1985H64.0552V6.79855ZM71.5112 15.3185C70.8632 15.3185 70.2352 15.2265 69.6272 15.0425C69.0272 14.8585 68.5512 14.6145 68.1992 14.3105L68.7392 13.0985C69.0832 13.3705 69.5032 13.5945 69.9992 13.7705C70.5032 13.9385 71.0072 14.0225 71.5112 14.0225C72.1352 14.0225 72.5992 13.9225 72.9032 13.7225C73.2152 13.5225 73.3712 13.2585 73.3712 12.9305C73.3712 12.6905 73.2832 12.4945 73.1072 12.3425C72.9392 12.1825 72.7232 12.0585 72.4592 11.9705C72.1952 11.8825 71.8352 11.7825 71.3792 11.6705C70.7392 11.5185 70.2192 11.3665 69.8192 11.2145C69.4272 11.0625 69.0872 10.8265 68.7992 10.5065C68.5192 10.1785 68.3792 9.73855 68.3792 9.18655C68.3792 8.72255 68.5032 8.30255 68.7512 7.92655C69.0072 7.54255 69.3872 7.23855 69.8912 7.01455C70.4032 6.79055 71.0272 6.67855 71.7632 6.67855C72.2752 6.67855 72.7792 6.74255 73.2752 6.87055C73.7712 6.99855 74.1992 7.18255 74.5592 7.42255L74.0672 8.63455C73.6992 8.41855 73.3152 8.25455 72.9152 8.14255C72.5152 8.03055 72.1272 7.97455 71.7512 7.97455C71.1352 7.97455 70.6752 8.07855 70.3712 8.28655C70.0752 8.49455 69.9272 8.77055 69.9272 9.11455C69.9272 9.35455 70.0112 9.55055 70.1792 9.70255C70.3552 9.85455 70.5752 9.97455 70.8392 10.0625C71.1032 10.1505 71.4632 10.2505 71.9192 10.3625C72.5432 10.5065 73.0552 10.6585 73.4552 10.8185C73.8552 10.9705 74.1952 11.2065 74.4752 11.5265C74.7632 11.8465 74.9072 12.2785 74.9072 12.8225C74.9072 13.2865 74.7792 13.7065 74.5232 14.0825C74.2752 14.4585 73.8952 14.7585 73.3832 14.9825C72.8712 15.2065 72.2472 15.3185 71.5112 15.3185ZM79.0609 8.11855H76.2769V6.79855H83.4049V8.11855H80.6209V15.1985H79.0609V8.11855ZM85.5957 6.79855H87.1557V15.1985H85.5957V6.79855ZM94.3357 15.3185C93.4877 15.3185 92.7197 15.1345 92.0317 14.7665C91.3517 14.3905 90.8157 13.8745 90.4237 13.2185C90.0397 12.5625 89.8477 11.8225 89.8477 10.9985C89.8477 10.1745 90.0437 9.43455 90.4357 8.77855C90.8277 8.12255 91.3637 7.61055 92.0437 7.24255C92.7317 6.86655 93.4997 6.67855 94.3477 6.67855C95.0357 6.67855 95.6637 6.79855 96.2317 7.03855C96.7997 7.27855 97.2797 7.62655 97.6717 8.08255L96.6637 9.03055C96.0557 8.37455 95.3077 8.04655 94.4197 8.04655C93.8437 8.04655 93.3277 8.17455 92.8717 8.43055C92.4157 8.67855 92.0597 9.02655 91.8037 9.47455C91.5477 9.92255 91.4197 10.4305 91.4197 10.9985C91.4197 11.5665 91.5477 12.0745 91.8037 12.5225C92.0597 12.9705 92.4157 13.3225 92.8717 13.5785C93.3277 13.8265 93.8437 13.9505 94.4197 13.9505C95.3077 13.9505 96.0557 13.6185 96.6637 12.9545L97.6717 13.9145C97.2797 14.3705 96.7957 14.7185 96.2197 14.9585C95.6517 15.1985 95.0237 15.3185 94.3357 15.3185Z" fill="white"/>
<path d="M38.056 20.4726C38.7813 20.4726 39.352 20.646 39.768 20.9926C40.184 21.3393 40.392 21.8166 40.392 22.4246C40.392 23.0326 40.184 23.51 39.768 23.8566C39.352 24.2033 38.7813 24.3766 38.056 24.3766H36.672V26.0726H35.872V20.4726H38.056ZM38.032 23.6806C38.5387 23.6806 38.9253 23.574 39.192 23.3606C39.4587 23.142 39.592 22.83 39.592 22.4246C39.592 22.0193 39.4587 21.71 39.192 21.4966C38.9253 21.278 38.5387 21.1686 38.032 21.1686H36.672V23.6806H38.032ZM44.8732 23.9766C44.8732 24.0353 44.8679 24.1126 44.8572 24.2086H41.4172C41.4652 24.582 41.6279 24.8833 41.9052 25.1126C42.1879 25.3366 42.5372 25.4486 42.9532 25.4486C43.4599 25.4486 43.8679 25.278 44.1772 24.9366L44.6012 25.4326C44.4092 25.6566 44.1692 25.8273 43.8812 25.9446C43.5985 26.062 43.2812 26.1206 42.9292 26.1206C42.4812 26.1206 42.0839 26.03 41.7372 25.8486C41.3905 25.662 41.1212 25.4033 40.9292 25.0726C40.7425 24.742 40.6492 24.3686 40.6492 23.9526C40.6492 23.542 40.7399 23.1713 40.9212 22.8406C41.1079 22.51 41.3612 22.254 41.6812 22.0726C42.0065 21.886 42.3719 21.7926 42.7772 21.7926C43.1825 21.7926 43.5425 21.886 43.8572 22.0726C44.1772 22.254 44.4252 22.51 44.6012 22.8406C44.7825 23.1713 44.8732 23.55 44.8732 23.9766ZM42.7772 22.4406C42.4092 22.4406 42.0999 22.5526 41.8492 22.7766C41.6039 23.0006 41.4599 23.294 41.4172 23.6566H44.1372C44.0945 23.2993 43.9479 23.0086 43.6972 22.7846C43.4519 22.5553 43.1452 22.4406 42.7772 22.4406ZM50.6326 21.8326V26.0726H49.9366V22.9766L48.3526 25.5926H48.0166L46.4486 22.9686V26.0726H45.7446V21.8326H46.5366L48.2006 24.6966L49.9126 21.8326H50.6326ZM53.6234 26.1206C53.2021 26.1206 52.8234 26.0273 52.4874 25.8406C52.1514 25.654 51.8874 25.398 51.6954 25.0726C51.5088 24.742 51.4154 24.3686 51.4154 23.9526C51.4154 23.5366 51.5088 23.166 51.6954 22.8406C51.8874 22.51 52.1514 22.254 52.4874 22.0726C52.8234 21.886 53.2021 21.7926 53.6234 21.7926C54.0448 21.7926 54.4208 21.886 54.7514 22.0726C55.0874 22.254 55.3488 22.51 55.5354 22.8406C55.7274 23.166 55.8234 23.5366 55.8234 23.9526C55.8234 24.3686 55.7274 24.742 55.5354 25.0726C55.3488 25.398 55.0874 25.654 54.7514 25.8406C54.4208 26.0273 54.0448 26.1206 53.6234 26.1206ZM53.6234 25.4486C53.8954 25.4486 54.1381 25.3873 54.3514 25.2646C54.5701 25.1366 54.7408 24.9606 54.8634 24.7366C54.9861 24.5073 55.0474 24.246 55.0474 23.9526C55.0474 23.6593 54.9861 23.4006 54.8634 23.1766C54.7408 22.9473 54.5701 22.7713 54.3514 22.6486C54.1381 22.526 53.8954 22.4646 53.6234 22.4646C53.3514 22.4646 53.1061 22.526 52.8874 22.6486C52.6741 22.7713 52.5034 22.9473 52.3754 23.1766C52.2528 23.4006 52.1914 23.6593 52.1914 23.9526C52.1914 24.246 52.2528 24.5073 52.3754 24.7366C52.5034 24.9606 52.6741 25.1366 52.8874 25.2646C53.1061 25.3873 53.3514 25.4486 53.6234 25.4486ZM56.6124 21.8326H57.3804V23.6326H59.7964V21.8326H60.5644V26.0726H59.7964V24.2966H57.3804V26.0726H56.6124V21.8326ZM64.8977 22.5046H63.3457V26.0726H62.5777V22.5046H61.0257V21.8326H64.8977V22.5046ZM70.0795 23.8726C70.6288 24.0113 70.9035 24.3553 70.9035 24.9046C70.9035 25.278 70.7622 25.566 70.4795 25.7686C70.2022 25.9713 69.7862 26.0726 69.2315 26.0726H67.1915V21.8326H69.1595C69.6608 21.8326 70.0528 21.9286 70.3355 22.1206C70.6182 22.3073 70.7595 22.574 70.7595 22.9206C70.7595 23.1446 70.6982 23.3393 70.5755 23.5046C70.4582 23.6646 70.2928 23.7873 70.0795 23.8726ZM67.9435 23.6566H69.0955C69.3888 23.6566 69.6102 23.6033 69.7595 23.4966C69.9142 23.39 69.9915 23.2353 69.9915 23.0326C69.9915 22.6273 69.6928 22.4246 69.0955 22.4246H67.9435V23.6566ZM69.1755 25.4806C69.4955 25.4806 69.7355 25.43 69.8955 25.3286C70.0555 25.2273 70.1355 25.07 70.1355 24.8566C70.1355 24.638 70.0608 24.4753 69.9115 24.3686C69.7675 24.262 69.5382 24.2086 69.2235 24.2086H67.9435V25.4806H69.1755ZM73.2976 21.7926C73.8842 21.7926 74.3322 21.9366 74.6416 22.2246C74.9562 22.5126 75.1136 22.942 75.1136 23.5126V26.0726H74.3856V25.5126C74.2576 25.71 74.0736 25.862 73.8336 25.9686C73.5989 26.07 73.3189 26.1206 72.9936 26.1206C72.5189 26.1206 72.1376 26.006 71.8496 25.7766C71.5669 25.5473 71.4256 25.246 71.4256 24.8726C71.4256 24.4993 71.5616 24.2006 71.8336 23.9766C72.1056 23.7473 72.5376 23.6326 73.1296 23.6326H74.3456V23.4806C74.3456 23.15 74.2496 22.8966 74.0576 22.7206C73.8656 22.5446 73.5829 22.4566 73.2096 22.4566C72.9589 22.4566 72.7136 22.4993 72.4736 22.5846C72.2336 22.6646 72.0309 22.774 71.8656 22.9126L71.5456 22.3366C71.7642 22.1606 72.0256 22.0273 72.3296 21.9366C72.6336 21.8406 72.9562 21.7926 73.2976 21.7926ZM73.1216 25.5286C73.4149 25.5286 73.6682 25.4646 73.8816 25.3366C74.0949 25.2033 74.2496 25.0166 74.3456 24.7766V24.1846H73.1616C72.5109 24.1846 72.1856 24.4033 72.1856 24.8406C72.1856 25.054 72.2682 25.222 72.4336 25.3446C72.5989 25.4673 72.8282 25.5286 73.1216 25.5286ZM76.1765 21.8326H76.9445V23.6326H79.3605V21.8326H80.1285V26.0726H79.3605V24.2966H76.9445V26.0726H76.1765V21.8326ZM81.3018 21.8326H82.0698V23.6326H84.4858V21.8326H85.2538V26.0726H84.4858V24.2966H82.0698V26.0726H81.3018V21.8326ZM88.3391 23.2726C88.8725 23.278 89.2805 23.4006 89.5631 23.6406C89.8458 23.8806 89.9871 24.2193 89.9871 24.6566C89.9871 25.1153 89.8325 25.47 89.5231 25.7206C89.2191 25.966 88.7818 26.086 88.2111 26.0806L86.4271 26.0726V21.8326H87.1951V23.2646L88.3391 23.2726ZM90.6191 21.8326H91.3871V26.0726H90.6191V21.8326ZM88.1551 25.4966C88.5018 25.502 88.7631 25.4326 88.9391 25.2886C89.1205 25.1446 89.2111 24.9313 89.2111 24.6486C89.2111 24.3713 89.1231 24.1686 88.9471 24.0406C88.7711 23.9126 88.5071 23.846 88.1551 23.8406L87.1951 23.8246V25.4886L88.1551 25.4966ZM95.2083 26.0726L93.9843 24.4486L92.7442 26.0726H91.8882L93.5602 23.9046L91.9682 21.8326H92.8242L93.9922 23.3606L95.1523 21.8326H95.9922L94.3923 23.9046L96.0803 26.0726H95.2083ZM100.045 24.2806H99.1648V26.0726H98.3968V21.8326H99.1648V23.6246H100.061L101.437 21.8326H102.261L100.653 23.8726L102.373 26.0726H101.469L100.045 24.2806ZM104.533 26.1206C104.112 26.1206 103.733 26.0273 103.397 25.8406C103.061 25.654 102.797 25.398 102.605 25.0726C102.419 24.742 102.325 24.3686 102.325 23.9526C102.325 23.5366 102.419 23.166 102.605 22.8406C102.797 22.51 103.061 22.254 103.397 22.0726C103.733 21.886 104.112 21.7926 104.533 21.7926C104.955 21.7926 105.331 21.886 105.661 22.0726C105.997 22.254 106.259 22.51 106.445 22.8406C106.637 23.166 106.733 23.5366 106.733 23.9526C106.733 24.3686 106.637 24.742 106.445 25.0726C106.259 25.398 105.997 25.654 105.661 25.8406C105.331 26.0273 104.955 26.1206 104.533 26.1206ZM104.533 25.4486C104.805 25.4486 105.048 25.3873 105.261 25.2646C105.48 25.1366 105.651 24.9606 105.773 24.7366C105.896 24.5073 105.957 24.246 105.957 23.9526C105.957 23.6593 105.896 23.4006 105.773 23.1766C105.651 22.9473 105.48 22.7713 105.261 22.6486C105.048 22.526 104.805 22.4646 104.533 22.4646C104.261 22.4646 104.016 22.526 103.797 22.6486C103.584 22.7713 103.413 22.9473 103.285 23.1766C103.163 23.4006 103.101 23.6593 103.101 23.9526C103.101 24.246 103.163 24.5073 103.285 24.7366C103.413 24.9606 103.584 25.1366 103.797 25.2646C104.016 25.3873 104.261 25.4486 104.533 25.4486ZM112.41 21.8326V26.0726H111.714V22.9766L110.13 25.5926H109.794L108.226 22.9686V26.0726H107.522V21.8326H108.314L109.978 24.6966L111.69 21.8326H112.41ZM113.585 21.8326H114.353V23.6326H116.769V21.8326H117.537V26.0726H116.769V24.2966H114.353V26.0726H113.585V21.8326ZM120.223 21.7926C120.809 21.7926 121.257 21.9366 121.567 22.2246C121.881 22.5126 122.039 22.942 122.039 23.5126V26.0726H121.311V25.5126C121.183 25.71 120.999 25.862 120.759 25.9686C120.524 26.07 120.244 26.1206 119.919 26.1206C119.444 26.1206 119.063 26.006 118.775 25.7766C118.492 25.5473 118.351 25.246 118.351 24.8726C118.351 24.4993 118.487 24.2006 118.759 23.9766C119.031 23.7473 119.463 23.6326 120.055 23.6326H121.271V23.4806C121.271 23.15 121.175 22.8966 120.983 22.7206C120.791 22.5446 120.508 22.4566 120.135 22.4566C119.884 22.4566 119.639 22.4993 119.399 22.5846C119.159 22.6646 118.956 22.774 118.791 22.9126L118.471 22.3366C118.689 22.1606 118.951 22.0273 119.255 21.9366C119.559 21.8406 119.881 21.7926 120.223 21.7926ZM120.047 25.5286C120.34 25.5286 120.593 25.4646 120.807 25.3366C121.02 25.2033 121.175 25.0166 121.271 24.7766V24.1846H120.087C119.436 24.1846 119.111 24.4033 119.111 24.8406C119.111 25.054 119.193 25.222 119.359 25.3446C119.524 25.4673 119.753 25.5286 120.047 25.5286ZM126.261 22.5046H124.709V26.0726H123.941V22.5046H122.389V21.8326H126.261V22.5046Z" fill="white"/>
<g clip-path="url(#clip0)">
<path d="M27.6562 11.8799V4.99704C27.6562 2.51666 25.4746 0.498795 22.793 0.498795C20.1113 0.498795 17.9297 2.51666 17.9297 4.99704H20.2734C20.2734 3.71206 21.4037 2.66662 22.793 2.66662C24.1822 2.66662 25.3125 3.71206 25.3125 4.99704V11.8799H20.1753C20.2381 11.7471 20.2734 11.6006 20.2734 11.4463C20.2734 10.8477 19.7488 10.3624 19.1016 10.3624C18.4543 10.3624 17.9297 10.8477 17.9297 11.4463C17.9297 11.6006 17.9651 11.7471 18.0278 11.8799H0V14.3729C0 20.4568 4.07285 23.8944 7.51424 25.3085C6.74227 26.0817 6.26953 27.1141 6.26953 28.247H8.61328C8.61328 27.0516 9.66469 26.0792 10.957 26.0792H19.043C20.3353 26.0792 21.3867 27.0516 21.3867 28.247H23.7305C23.7305 27.1141 23.2577 26.0817 22.4858 25.3085C25.9271 23.8944 30 20.4568 30 14.3729V11.8799H27.6562ZM27.6562 14.3729C27.6562 18.1719 25.7607 20.4914 24.1707 21.7683C22.2265 23.3295 20.0656 23.9113 19.1602 23.9113H10.8398C9.93439 23.9113 7.77346 23.3295 5.82926 21.7683C4.23926 20.4914 2.34375 18.1719 2.34375 14.3729V14.0477H27.6562V14.3729Z" fill="white"/>
<path d="M19.1016 8.73654C19.7488 8.73654 20.2734 8.25125 20.2734 7.65262C20.2734 7.05399 19.7488 6.56871 19.1016 6.56871C18.4544 6.56871 17.9297 7.05399 17.9297 7.65262C17.9297 8.25125 18.4544 8.73654 19.1016 8.73654Z" fill="white"/>
</g>
<defs>
<clipPath id="clip0">
<rect width="30" height="27.7482" fill="white" transform="translate(0 0.498795)"/>
</clipPath>
</defs>
</svg>
