<svg width="122" height="133" viewBox="0 0 122 133" fill="none" xmlns="http://www.w3.org/2000/svg">
<path opacity="0.05" d="M3.05086 111.839H24.4013V129.978C24.4013 130.86 24.6862 131.583 25.2595 132.147C25.8311 132.716 26.5619 133 27.4522 133H43.3686C44.1947 133 44.9094 132.716 45.5132 132.147C46.1169 131.583 46.4179 130.86 46.4179 129.978V111.839H94.5507C95.4391 111.839 96.1702 111.558 96.7432 110.99C97.3167 110.422 97.6013 109.699 97.6013 108.817V96.7253C97.6013 95.848 97.3167 95.1203 96.7432 94.5556C96.1718 93.9873 95.4391 93.7031 94.5507 93.7031H46.4163V82.5563H78.8227C91.5304 82.5563 101.902 78.7187 109.942 71.0327C117.979 63.3548 122 53.4368 122 41.2781C122 29.1276 117.979 19.2093 109.942 11.5235C101.904 3.84535 91.5301 0 78.8227 0H27.4506C26.5601 0 25.8309 0.283923 25.2579 0.848902C24.6862 1.41701 24.3997 2.14442 24.3997 3.022V62.4389H3.05086C2.16062 62.4389 1.43112 62.7374 0.858144 63.3355C0.28675 63.9339 0 64.6422 0 65.4606V79.5338C0 80.4163 0.284908 81.1393 0.858144 81.7071C1.43138 82.2755 2.15904 82.556 3.05086 82.556H24.4013V93.7028H3.05086C2.16062 93.7028 1.43112 93.987 0.858144 94.5554C0.28675 95.1201 0 95.8462 0 96.7251V108.816C0 109.699 0.284908 110.422 0.858144 110.99C1.43112 111.558 2.16035 111.839 3.05086 111.839ZM46.4163 20.1221H76.9164C83.6511 20.1221 89.083 22.0735 93.2146 25.9778C97.344 29.8824 99.4097 34.9849 99.4097 41.2797C99.4097 47.5776 97.344 52.6817 93.2146 56.5816C89.083 60.4892 83.6508 62.4407 76.9164 62.4407H46.4163V20.1221Z" fill="#693030"/>
</svg>
