<svg width="272" height="298" viewBox="0 0 272 298" fill="none" xmlns="http://www.w3.org/2000/svg">
<path opacity="0.05" d="M6.80191 250.073H54.4029V290.632C54.4029 292.605 55.0381 294.221 56.3162 295.483C57.5907 296.754 59.2201 297.39 61.2048 297.39H96.6907C98.5323 297.39 100.126 296.754 101.472 295.483C102.818 294.221 103.489 292.605 103.489 290.632V250.073H210.802C212.782 250.073 214.412 249.446 215.69 248.175C216.968 246.905 217.603 245.289 217.603 243.315V216.279C217.603 214.317 216.968 212.69 215.69 211.427C214.416 210.157 212.782 209.521 210.802 209.521H103.486V184.597H175.736C204.068 184.597 227.191 176.016 245.117 158.83C263.036 141.662 272 119.485 272 92.2984C272 65.1296 263.036 42.9522 245.117 25.7668C227.195 8.59825 204.067 0 175.736 0H61.2013C59.2159 0 57.5901 0.634856 56.3127 1.89816C55.0381 3.16845 54.3994 4.79494 54.3994 6.75722V139.614H6.80191C4.81711 139.614 3.19069 140.282 1.91324 141.619C0.639311 142.957 0 144.541 0 146.371V177.838C0 179.812 0.635205 181.428 1.91324 182.698C3.19127 183.969 4.81359 184.596 6.80191 184.596H54.4029V209.521H6.80191C4.81711 209.521 3.19069 210.156 1.91324 211.427C0.639311 212.69 0 214.313 0 216.278V243.315C0 245.288 0.635205 246.905 1.91324 248.175C3.19069 249.446 4.81653 250.073 6.80191 250.073ZM103.486 44.9932H171.486C186.501 44.9932 198.611 49.3567 207.823 58.0867C217.029 66.8173 221.635 78.2266 221.635 92.3019C221.635 106.384 217.029 117.797 207.823 126.517C198.611 135.255 186.5 139.618 171.486 139.618H103.486V44.9932Z" fill="#693030"/>
</svg>
