<svg width="178" height="46" fill="none" xmlns="http://www.w3.org/2000/svg"><path d="M10.316 12.258h-5.95l-1.173 2.754H.915l5.355-11.9h2.176l5.372 11.9h-2.312l-1.19-2.754zm-.731-1.734L7.341 5.322l-2.227 5.202h4.471zm14.977 4.488l-2.43-3.485a4.512 4.512 0 01-.46.017h-2.686v3.468h-2.21v-11.9h4.896c1.032 0 1.927.17 2.686.51.771.34 1.36.827 1.768 1.462.408.634.612 1.388.612 2.26 0 .896-.22 1.667-.663 2.313-.43.646-1.054 1.127-1.87 1.445l2.737 3.91h-2.38zm-.05-7.667c0-.76-.25-1.343-.749-1.751-.498-.408-1.23-.612-2.193-.612h-2.584v4.743h2.584c.964 0 1.695-.204 2.193-.612.5-.42.748-1.009.748-1.768zm8.392-2.363H28.96v-1.87h10.098v1.87h-3.944v10.03h-2.21V4.982zm9.257-1.87h2.21v11.9h-2.21v-11.9zm10.563 12.07c-.918 0-1.807-.13-2.669-.391-.85-.26-1.524-.607-2.023-1.037l.765-1.717c.488.385 1.083.702 1.785.952a6.738 6.738 0 002.142.357c.884 0 1.542-.142 1.972-.425.442-.284.663-.658.663-1.122 0-.34-.124-.618-.374-.833a2.417 2.417 0 00-.918-.527 20.705 20.705 0 00-1.53-.425c-.906-.216-1.643-.43-2.21-.646a3.742 3.742 0 01-1.445-1.003c-.396-.465-.595-1.088-.595-1.87 0-.658.176-1.253.527-1.785.363-.544.901-.975 1.615-1.292.726-.318 1.61-.476 2.652-.476a8.5 8.5 0 012.142.272c.703.181 1.31.442 1.82.782l-.698 1.717a6.875 6.875 0 00-1.632-.697 6.104 6.104 0 00-1.649-.238c-.872 0-1.524.147-1.955.442-.42.294-.629.685-.629 1.173 0 .34.12.617.357.833.25.215.561.385.935.51.374.124.884.266 1.53.425.884.204 1.61.42 2.176.646a3.58 3.58 0 011.445 1.003c.408.453.612 1.065.612 1.836a3.1 3.1 0 01-.544 1.785c-.351.532-.89.957-1.615 1.275-.725.317-1.61.476-2.652.476zm10.696-10.2h-3.944v-1.87h10.098v1.87H65.63v10.03h-2.21V4.982zm9.257-1.87h2.21v11.9h-2.21v-11.9zm12.382 12.07c-1.201 0-2.29-.26-3.264-.782a5.966 5.966 0 01-2.278-2.193c-.544-.93-.816-1.978-.816-3.145 0-1.168.278-2.216.833-3.145a5.843 5.843 0 012.278-2.176c.975-.533 2.063-.8 3.264-.8.975 0 1.864.17 2.669.51.805.34 1.485.834 2.04 1.48l-1.428 1.343c-.861-.93-1.921-1.394-3.18-1.394-.815 0-1.546.181-2.192.544a3.8 3.8 0 00-1.513 1.479c-.363.634-.544 1.354-.544 2.159 0 .804.181 1.524.544 2.159a3.917 3.917 0 001.513 1.496c.646.351 1.377.527 2.193.527 1.258 0 2.318-.47 3.179-1.411l1.428 1.36a5.415 5.415 0 01-2.057 1.479c-.805.34-1.694.51-2.67.51zM6.348 28.449c1.27 0 2.268.303 2.996.91.728.607 1.092 1.442 1.092 2.506 0 1.064-.364 1.9-1.092 2.506-.728.607-1.727.91-2.996.91H3.926v2.968h-1.4v-9.8h3.822zm-.042 5.614c.887 0 1.563-.187 2.03-.56.467-.383.7-.929.7-1.638 0-.71-.233-1.25-.7-1.624-.467-.383-1.143-.574-2.03-.574h-2.38v4.396h2.38zm12.322.518c0 .103-.01.238-.028.406h-6.02c.084.653.369 1.18.854 1.582.495.392 1.106.588 1.834.588.887 0 1.6-.299 2.142-.896l.742.868a3.24 3.24 0 01-1.26.896 4.307 4.307 0 01-1.666.308c-.784 0-1.48-.159-2.086-.476a3.538 3.538 0 01-1.414-1.358c-.327-.579-.49-1.232-.49-1.96 0-.719.159-1.367.476-1.946a3.474 3.474 0 011.33-1.344 3.785 3.785 0 011.918-.49c.71 0 1.34.163 1.89.49.56.317.994.765 1.302 1.344.317.579.476 1.241.476 1.988zm-3.668-2.688c-.644 0-1.185.196-1.624.588-.43.392-.681.905-.756 1.54h4.76c-.075-.625-.331-1.134-.77-1.526-.43-.401-.966-.602-1.61-.602zm14.097-1.064v7.42H27.84v-5.418l-2.772 4.578h-.588l-2.744-4.592v5.432h-1.232v-7.42h1.386l2.912 5.012 2.996-5.012h1.26zm5.584 7.504c-.737 0-1.4-.163-1.988-.49a3.618 3.618 0 01-1.386-1.344c-.327-.579-.49-1.232-.49-1.96s.163-1.377.49-1.946a3.491 3.491 0 011.386-1.344c.588-.327 1.25-.49 1.988-.49.737 0 1.395.163 1.974.49a3.397 3.397 0 011.372 1.344c.336.57.504 1.218.504 1.946s-.168 1.381-.504 1.96a3.517 3.517 0 01-1.372 1.344c-.579.327-1.237.49-1.974.49zm0-1.176c.476 0 .9-.107 1.274-.322.383-.224.681-.532.896-.924a2.86 2.86 0 00.322-1.372c0-.513-.107-.966-.322-1.358a2.25 2.25 0 00-.896-.924 2.51 2.51 0 00-1.274-.322c-.476 0-.905.107-1.288.322a2.373 2.373 0 00-.896.924c-.215.392-.322.845-.322 1.358 0 .513.107.97.322 1.372.224.392.523.7.896.924.383.215.812.322 1.288.322zm5.58-6.328h1.345v3.15h4.228v-3.15h1.344v7.42h-1.344v-3.108h-4.228v3.108h-1.344v-7.42zm14.85 1.176h-2.716v6.244h-1.344v-6.244h-2.716v-1.176h6.776v1.176zm9.768 2.394c.962.243 1.442.845 1.442 1.806 0 .653-.247 1.157-.742 1.512-.485.355-1.213.532-2.184.532h-3.57v-7.42h3.444c.877 0 1.564.168 2.058.504.495.327.742.793.742 1.4 0 .392-.107.733-.322 1.022-.205.28-.494.495-.868.644zm-3.738-.378h2.016c.514 0 .9-.093 1.162-.28.27-.187.406-.457.406-.812 0-.71-.523-1.064-1.568-1.064h-2.016v2.156zm2.156 3.192c.56 0 .98-.089 1.26-.266.28-.177.42-.453.42-.826 0-.383-.13-.667-.392-.854-.252-.187-.653-.28-1.204-.28h-2.24v2.226h2.156zm7.564-6.454c1.026 0 1.81.252 2.352.756.55.504.826 1.255.826 2.254v4.48h-1.274v-.98a2.161 2.161 0 01-.966.798c-.41.177-.9.266-1.47.266-.83 0-1.498-.2-2.002-.602-.495-.401-.742-.929-.742-1.582s.238-1.176.714-1.568c.476-.401 1.232-.602 2.268-.602h2.128v-.266c0-.579-.168-1.022-.504-1.33-.336-.308-.83-.462-1.484-.462a3.82 3.82 0 00-1.288.224 3.21 3.21 0 00-1.064.574l-.56-1.008a3.97 3.97 0 011.372-.7 5.593 5.593 0 011.694-.252zm-.308 6.538c.513 0 .956-.112 1.33-.336a2 2 0 00.812-.98v-1.036h-2.072c-1.139 0-1.708.383-1.708 1.148 0 .373.144.667.434.882.29.215.69.322 1.204.322zm5.696-6.468h1.344v3.15h4.228v-3.15h1.344v7.42H81.78v-3.108h-4.228v3.108h-1.344v-7.42zm9.32 0h1.343v3.15H91.1v-3.15h1.344v7.42H91.1v-3.108h-4.228v3.108h-1.344v-7.42zm12.665 2.52c.933.01 1.647.224 2.141.644.495.42.742 1.013.742 1.778 0 .803-.27 1.423-.812 1.862-.531.43-1.297.64-2.296.63l-3.121-.014v-7.42h1.344v2.506l2.002.014zm3.989-2.52h1.344v7.42h-1.344v-7.42zm-4.312 6.412c.607.01 1.065-.112 1.373-.364.317-.252.475-.625.475-1.12 0-.485-.153-.84-.462-1.064-.308-.224-.77-.34-1.386-.35l-1.68-.028v2.912l1.68.014zm12.693 1.008l-2.142-2.842-2.17 2.842h-1.498l2.926-3.794-2.786-3.626h1.498l2.044 2.674 2.03-2.674h1.47l-2.8 3.626 2.954 3.794h-1.526zm9.164-3.136h-1.54v3.136h-1.344v-7.42h1.344v3.136h1.568l2.408-3.136h1.442l-2.814 3.57 3.01 3.85h-1.582l-2.492-3.136zm8.206 3.22c-.738 0-1.4-.163-1.988-.49a3.618 3.618 0 01-1.386-1.344c-.327-.579-.49-1.232-.49-1.96s.163-1.377.49-1.946a3.491 3.491 0 011.386-1.344c.588-.327 1.25-.49 1.988-.49.737 0 1.395.163 1.974.49a3.4 3.4 0 011.372 1.344c.336.57.504 1.218.504 1.946s-.168 1.381-.504 1.96a3.52 3.52 0 01-1.372 1.344c-.579.327-1.237.49-1.974.49zm0-1.176c.476 0 .9-.107 1.274-.322.382-.224.681-.532.896-.924a2.87 2.87 0 00.322-1.372c0-.513-.108-.966-.322-1.358a2.257 2.257 0 00-.896-.924 2.512 2.512 0 00-1.274-.322c-.476 0-.906.107-1.288.322a2.368 2.368 0 00-.896.924c-.215.392-.322.845-.322 1.358 0 .513.107.97.322 1.372.224.392.522.7.896.924.382.215.812.322 1.288.322zm14.134-6.328v7.42h-1.218v-5.418l-2.772 4.578h-.588l-2.744-4.592v5.432h-1.232v-7.42h1.386l2.912 5.012 2.996-5.012h1.26zm2.406 0h1.344v3.15h4.228v-3.15h1.344v7.42h-1.344v-3.108h-4.228v3.108h-1.344v-7.42zm11.965-.07c1.027 0 1.811.252 2.352.756.551.504.826 1.255.826 2.254v4.48h-1.274v-.98a2.161 2.161 0 01-.966.798c-.41.177-.9.266-1.47.266-.83 0-1.498-.2-2.002-.602-.494-.401-.742-.929-.742-1.582s.238-1.176.714-1.568c.476-.401 1.232-.602 2.268-.602h2.128v-.266c0-.579-.168-1.022-.504-1.33-.336-.308-.83-.462-1.484-.462a3.83 3.83 0 00-1.288.224 3.22 3.22 0 00-1.064.574l-.56-1.008c.383-.308.84-.541 1.372-.7a5.595 5.595 0 011.694-.252zm-.308 6.538c.514 0 .957-.112 1.33-.336.374-.233.644-.56.812-.98v-1.036h-2.072c-1.138 0-1.708.383-1.708 1.148 0 .373.145.667.434.882.29.215.691.322 1.204.322zm11.227-5.292h-2.716v6.244h-1.344v-6.244h-2.716v-1.176h6.776v1.176z" fill="#2F2F2F"/></svg>