<svg width="127" height="29" fill="none" xmlns="http://www.w3.org/2000/svg"><path d="M41.576 13.255h-4.2l-.828 1.943H34.94l3.78-8.4h1.536l3.792 8.4h-1.632l-.84-1.944zm-.516-1.225l-1.584-3.67-1.572 3.671h3.156zm10.572 3.168l-1.716-2.46c-.072.008-.18.013-.324.013h-1.896v2.447h-1.56v-8.4h3.456c.728 0 1.36.12 1.896.36.544.24.96.585 1.248 1.033.288.448.432.98.432 1.596 0 .631-.156 1.175-.468 1.631-.304.457-.744.796-1.32 1.02l1.932 2.76h-1.68zm-.036-5.411c0-.536-.176-.948-.528-1.236-.352-.288-.868-.432-1.548-.432h-1.824v3.348h1.824c.68 0 1.196-.145 1.548-.433.352-.296.528-.712.528-1.247zm5.924-1.668h-2.784v-1.32h7.128v1.32H59.08v7.08h-1.56v-7.08zm6.535-1.32h1.56v8.4h-1.56v-8.4zm7.456 8.52a6.468 6.468 0 01-1.884-.277c-.6-.184-1.076-.428-1.428-.732l.54-1.212a4.37 4.37 0 001.26.672 4.757 4.757 0 001.512.253c.624 0 1.088-.1 1.392-.3.312-.2.468-.465.468-.793a.741.741 0 00-.264-.588 1.705 1.705 0 00-.648-.372 14.58 14.58 0 00-1.08-.3 12.76 12.76 0 01-1.56-.456 2.641 2.641 0 01-1.02-.707c-.28-.329-.42-.768-.42-1.32 0-.464.124-.884.372-1.26.256-.384.636-.688 1.14-.912.512-.224 1.136-.336 1.872-.336.512 0 1.016.064 1.512.192a4.18 4.18 0 011.284.552l-.492 1.212a4.854 4.854 0 00-1.152-.492 4.31 4.31 0 00-1.164-.168c-.616 0-1.076.104-1.38.312-.296.208-.444.484-.444.828 0 .24.084.436.252.588.176.152.396.272.66.36.264.087.624.188 1.08.3a10.73 10.73 0 011.536.456c.4.151.74.387 1.02.707.288.32.432.752.432 1.296 0 .465-.128.885-.384 1.26-.248.377-.628.676-1.14.9-.512.225-1.136.337-1.872.337zm7.55-7.2h-2.784v-1.32h7.128v1.32H80.62v7.08h-1.56v-7.08zm6.535-1.32h1.56v8.4h-1.56v-8.4zm8.74 8.52c-.848 0-1.616-.185-2.304-.553a4.212 4.212 0 01-1.608-1.547c-.384-.656-.576-1.396-.576-2.22 0-.825.196-1.564.588-2.22a4.124 4.124 0 011.608-1.536c.688-.376 1.456-.564 2.304-.564.688 0 1.316.12 1.884.36.568.24 1.048.588 1.44 1.044l-1.008.948c-.608-.656-1.356-.984-2.244-.984-.576 0-1.092.128-1.548.384a2.682 2.682 0 00-1.068 1.044 3.016 3.016 0 00-.384 1.524c0 .567.128 1.075.384 1.524.256.447.612.8 1.068 1.056.456.247.972.371 1.548.371.888 0 1.636-.332 2.244-.995l1.008.96a3.823 3.823 0 01-1.452 1.044c-.568.24-1.196.36-1.884.36zm-56.28 5.154c.725 0 1.296.173 1.712.52.416.346.624.824.624 1.432s-.208 1.085-.624 1.432c-.416.346-.987.52-1.712.52h-1.384v1.696h-.8v-5.6h2.184zm-.024 3.208c.507 0 .893-.107 1.16-.32.267-.219.4-.531.4-.936 0-.406-.133-.715-.4-.928-.267-.219-.653-.328-1.16-.328h-1.36v2.512h1.36zm6.841.296c0 .058-.005.136-.016.232h-3.44c.048.373.21.674.488.904.283.224.632.336 1.048.336.507 0 .915-.171 1.224-.512l.424.496a1.851 1.851 0 01-.72.512 2.46 2.46 0 01-.952.176c-.448 0-.845-.091-1.192-.272a2.021 2.021 0 01-.808-.776 2.238 2.238 0 01-.28-1.12c0-.411.09-.782.272-1.112.187-.331.44-.587.76-.768a2.16 2.16 0 011.096-.28c.405 0 .765.093 1.08.28.32.181.568.437.744.768.181.33.272.709.272 1.136zm-2.096-1.536c-.368 0-.677.112-.928.336a1.36 1.36 0 00-.432.88h2.72a1.34 1.34 0 00-.44-.872c-.245-.23-.552-.344-.92-.344zm7.856-.608v4.24h-.696v-3.096l-1.584 2.616h-.336l-1.568-2.624v3.104h-.704v-4.24h.792l1.664 2.864 1.712-2.864h.72zm2.99 4.288c-.42 0-.8-.094-1.136-.28a2.067 2.067 0 01-.792-.768 2.239 2.239 0 01-.28-1.12 2.2 2.2 0 01.28-1.112 1.99 1.99 0 01.792-.768 2.3 2.3 0 011.136-.28c.422 0 .798.093 1.128.28.336.181.598.437.784.768.192.325.288.696.288 1.112 0 .416-.096.789-.288 1.12a2.01 2.01 0 01-.784.768c-.33.186-.706.28-1.128.28zm0-.672a1.353 1.353 0 001.24-.712c.123-.23.184-.491.184-.784a1.59 1.59 0 00-.184-.776 1.286 1.286 0 00-.512-.528 1.435 1.435 0 00-.728-.184c-.272 0-.517.061-.736.184a1.356 1.356 0 00-.512.528 1.59 1.59 0 00-.184.776c0 .293.062.554.184.784.128.224.3.4.512.528.22.122.464.184.736.184zm2.99-3.616h.767v1.8h2.416v-1.8h.768v4.24h-.768v-1.776H57.38v1.776h-.768v-4.24zm8.285.672h-1.552v3.568h-.768v-3.568h-1.552v-.672h3.872v.672zm5.181 1.368c.55.138.825.482.825 1.032 0 .373-.142.661-.424.864-.278.202-.694.304-1.249.304h-2.04v-4.24h1.968c.502 0 .894.096 1.176.288a.902.902 0 01.425.8.953.953 0 01-.184.584c-.118.16-.283.282-.496.368zm-2.135-.216h1.151c.294 0 .515-.054.665-.16a.528.528 0 00.231-.464c0-.406-.298-.608-.895-.608h-1.153v1.232zm1.231 1.824c.32 0 .56-.051.72-.152.16-.102.24-.259.24-.472 0-.219-.074-.382-.224-.488-.144-.107-.373-.16-.688-.16h-1.28v1.272h1.233zm4.123-3.688c.586 0 1.034.144 1.344.432.314.288.472.717.472 1.288v2.56h-.728v-.56a1.24 1.24 0 01-.552.456 2.11 2.11 0 01-.84.152c-.475 0-.856-.115-1.144-.344a1.107 1.107 0 01-.424-.904c0-.374.136-.672.408-.896.272-.23.704-.344 1.296-.344h1.216v-.152c0-.331-.096-.584-.288-.76-.192-.176-.475-.264-.848-.264-.251 0-.496.042-.736.128a1.83 1.83 0 00-.608.328l-.32-.576c.218-.176.48-.31.784-.4.304-.096.626-.144.968-.144zm-.176 3.736c.293 0 .546-.064.76-.192.213-.134.368-.32.464-.56v-.592h-1.184c-.651 0-.976.218-.976.656 0 .213.082.381.248.504.165.122.394.184.688.184zm3.055-3.696h.767v1.8h2.416v-1.8h.769v4.24h-.769v-1.776h-2.415v1.776h-.768v-4.24zm5.125 0h.768v1.8h2.416v-1.8h.768v4.24h-.768v-1.776H82.07v1.776h-.768v-4.24zm7.037 1.44c.534.005.942.128 1.224.368.283.24.424.578.424 1.016 0 .458-.154.813-.464 1.064-.304.245-.741.365-1.312.36l-1.784-.008v-4.24h.768v1.432l1.144.008zm2.28-1.44h.768v4.24h-.768v-4.24zm-2.464 3.664c.347.005.608-.064.784-.208.182-.144.272-.358.272-.64 0-.278-.088-.48-.264-.608-.176-.128-.44-.195-.792-.2l-.96-.016v1.664l.96.008zm7.053.576l-1.224-1.624-1.24 1.624h-.856l1.672-2.168-1.592-2.072h.856l1.168 1.528 1.16-1.528h.84l-1.6 2.072 1.688 2.168h-.872zm4.837-1.792h-.88v1.792h-.768v-4.24h.768v1.792h.896l1.376-1.792h.824l-1.608 2.04 1.72 2.2h-.904l-1.424-1.792zm4.488 1.84a2.3 2.3 0 01-1.136-.28 2.067 2.067 0 01-.792-.768 2.245 2.245 0 01-.28-1.12 2.2 2.2 0 01.28-1.112 1.99 1.99 0 01.792-.768 2.3 2.3 0 011.136-.28c.422 0 .798.093 1.128.28.336.181.598.437.784.768.192.325.288.696.288 1.112 0 .416-.096.789-.288 1.12a2.005 2.005 0 01-.784.768 2.25 2.25 0 01-1.128.28zm0-.672c.272 0 .515-.062.728-.184.219-.128.39-.304.512-.528.123-.23.184-.491.184-.784 0-.294-.061-.552-.184-.776a1.28 1.28 0 00-.512-.528 1.434 1.434 0 00-.728-.184 1.48 1.48 0 00-.736.184 1.358 1.358 0 00-.512.528 1.597 1.597 0 00-.184.776c0 .293.062.554.184.784.128.224.299.4.512.528.219.122.464.184.736.184zm7.877-3.616v4.24h-.696v-3.096l-1.584 2.616h-.336l-1.568-2.624v3.104h-.704v-4.24h.792l1.664 2.864 1.712-2.864h.72zm1.175 0h.768v1.8h2.416v-1.8h.768v4.24h-.768v-1.776h-2.416v1.776h-.768v-4.24zm6.638-.04c.586 0 1.034.144 1.344.432.314.288.472.717.472 1.288v2.56h-.728v-.56a1.24 1.24 0 01-.552.456 2.111 2.111 0 01-.84.152c-.475 0-.856-.115-1.144-.344a1.106 1.106 0 01-.424-.904c0-.374.136-.672.408-.896.272-.23.704-.344 1.296-.344h1.216v-.152c0-.331-.096-.584-.288-.76-.192-.176-.475-.264-.848-.264-.251 0-.496.042-.736.128a1.83 1.83 0 00-.608.328l-.32-.576c.218-.176.48-.31.784-.4.304-.096.626-.144.968-.144zm-.176 3.736c.293 0 .546-.064.76-.192.213-.134.368-.32.464-.56v-.592h-1.184c-.651 0-.976.218-.976.656 0 .213.082.381.248.504.165.122.394.184.688.184zm6.214-3.024h-1.552v3.568h-.768v-3.568h-1.552v-.672h3.872v.672z" fill="#fff"/><g clip-path="url(#clip0)" fill="#fff"><path d="M27.656 11.88V4.997c0-2.48-2.181-4.498-4.863-4.498-2.682 0-4.863 2.018-4.863 4.498h2.343c0-1.285 1.13-2.33 2.52-2.33 1.39 0 2.52 1.045 2.52 2.33v6.883h-5.138a1.01 1.01 0 00.098-.434c0-.598-.524-1.084-1.171-1.084-.648 0-1.172.486-1.172 1.084 0 .155.035.301.098.434H0v2.493c0 6.084 4.073 9.521 7.514 10.935-.772.774-1.244 1.806-1.244 2.939h2.343c0-1.195 1.052-2.168 2.344-2.168h8.086c1.292 0 2.344.973 2.344 2.168h2.343c0-1.133-.472-2.165-1.244-2.939C25.927 23.894 30 20.457 30 14.373V11.88h-2.344zm0 2.493c0 3.799-1.895 6.118-3.485 7.395-1.944 1.561-4.105 2.143-5.01 2.143H10.84c-.906 0-3.067-.582-5.01-2.143-1.59-1.277-3.486-3.596-3.486-7.395v-.325h25.312v.325z"/><path d="M19.102 8.737c.647 0 1.171-.486 1.171-1.084 0-.599-.524-1.084-1.171-1.084-.648 0-1.172.485-1.172 1.084 0 .598.524 1.084 1.172 1.084z"/></g><defs><clipPath id="clip0"><path fill="#fff" transform="translate(0 .499)" d="M0 0h30v27.748H0z"/></clipPath></defs></svg>