<svg width="272" height="298" fill="none" xmlns="http://www.w3.org/2000/svg"><path opacity=".05" d="M6.802 250.073h47.6v40.559c0 1.973.636 3.589 1.914 4.851 1.275 1.271 2.904 1.907 4.889 1.907H96.69c1.841 0 3.435-.636 4.781-1.907 1.346-1.262 2.017-2.878 2.017-4.851v-40.559h107.313c1.98 0 3.61-.627 4.888-1.898 1.278-1.27 1.913-2.886 1.913-4.86v-27.036c0-1.962-.635-3.589-1.913-4.852-1.274-1.27-2.908-1.906-4.888-1.906H103.486v-24.924h72.25c28.332 0 51.455-8.581 69.381-25.767C263.036 141.662 272 119.485 272 92.298c0-27.168-8.964-49.346-26.883-66.531C227.195 8.598 204.067 0 175.736 0H61.201c-1.985 0-3.61.635-4.888 1.898-1.275 1.27-1.914 2.897-1.914 4.86v132.856H6.802c-1.985 0-3.611.668-4.889 2.005C.64 142.957 0 144.541 0 146.371v31.467c0 1.974.635 3.59 1.913 4.86 1.278 1.271 2.9 1.898 4.889 1.898h47.6v24.925h-47.6c-1.985 0-3.611.635-4.889 1.906C.64 212.69 0 214.313 0 216.278v27.037c0 1.973.635 3.59 1.913 4.86 1.278 1.271 2.904 1.898 4.889 1.898zm96.684-205.08h68c15.015 0 27.125 4.364 36.337 13.094 9.206 8.73 13.812 20.14 13.812 34.215 0 14.082-4.606 25.495-13.812 34.215-9.212 8.738-21.323 13.101-36.337 13.101h-68V44.993z" fill="#693030"/></svg>