<svg width="122" height="133" fill="none" xmlns="http://www.w3.org/2000/svg"><path opacity=".05" d="M3.05 111.839h21.351v18.139c0 .882.285 1.605.858 2.169.572.569 1.303.853 2.193.853H43.37a3.02 3.02 0 002.144-.853c.604-.564.905-1.287.905-2.169v-18.139H94.55c.888 0 1.62-.281 2.192-.849.574-.568.858-1.291.858-2.173V96.725c0-.877-.284-1.605-.858-2.17-.571-.568-1.304-.852-2.192-.852H46.416V82.556h32.407c12.707 0 23.079-3.837 31.119-11.523C117.979 63.355 122 53.437 122 41.278c0-12.15-4.021-22.069-12.058-29.755C101.904 3.845 91.53 0 78.822 0h-51.37c-.89 0-1.62.284-2.193.849-.572.568-.858 1.295-.858 2.173v59.417H3.05c-.89 0-1.619.298-2.192.897A2.975 2.975 0 000 65.46v14.073c0 .882.285 1.605.858 2.173.573.569 1.301.849 2.193.849H24.4v11.147H3.051c-.89 0-1.62.284-2.193.852C.287 95.12 0 95.846 0 96.725v12.091c0 .883.285 1.606.858 2.174.573.568 1.302.849 2.193.849zm43.366-91.717h30.5c6.735 0 12.167 1.951 16.299 5.856 4.129 3.904 6.195 9.007 6.195 15.302 0 6.298-2.066 11.402-6.195 15.302-4.132 3.907-9.564 5.859-16.299 5.859h-30.5V20.122z" fill="#693030"/></svg>